<?xml version="1.0" standalone="no"?>
<!DOCTYPE svg PUBLIC "-//W3C//DTD SVG 20010904//EN"
 "http://www.w3.org/TR/2001/REC-SVG-20010904/DTD/svg10.dtd">
<svg version="1.0" xmlns="http://www.w3.org/2000/svg"
 width="1058.000000pt" height="1058.000000pt" viewBox="0 0 1058.000000 1058.000000"
 preserveAspectRatio="xMidYMid meet">
<metadata>
Created by potrace 1.11, written by Peter Selinger 2001-2013
</metadata>
<g transform="translate(0.000000,1058.000000) scale(0.100000,-0.100000)"
fill="#000000" stroke="none">
<path d="M5330 10283 c-8 -3 -26 -15 -38 -27 -56 -50 -52 116 -52 -2431 l0
-2355 -1757 -1171 c-967 -644 -1768 -1182 -1780 -1197 -33 -39 -39 -85 -18
-132 16 -35 169 -140 1812 -1235 988 -658 1810 -1203 1828 -1212 22 -10 45
-13 68 -9 43 8 3622 2389 3656 2432 l21 27 0 2427 0 2427 -21 27 c-18 22
-3555 2388 -3626 2425 -22 11 -67 13 -93 4z m1779 -1438 c875 -583 1591 -1063
1591 -1066 0 -7 -3182 -2129 -3193 -2129 -4 0 -7 959 -7 2131 0 1246 4 2129 9
2127 5 -1 725 -480 1600 -1063z m1699 -4509 l-3 -1064 -1592 1062 c-876 583
-1592 1064 -1590 1068 1 4 718 484 1592 1066 l1590 1059 3 -1063 c1 -585 1
-1543 0 -2128z m-1765 -208 c911 -606 1656 -1105 1656 -1108 0 -6 -3319 -2215
-3327 -2215 -13 1 -3321 2211 -3319 2218 4 13 3312 2215 3323 2212 6 -2 756
-500 1667 -1107z m-4447 -1639 c10 -17 -13 -36 -27 -22 -12 12 -4 33 11 33 5
0 12 -5 16 -11z"/>
</g>
</svg>
